<svg width="128" height="91" viewBox="0 0 128 91" xmlns="http://www.w3.org/2000/svg" xmlns:xlink="http://www.w3.org/1999/xlink"><title>icon-5</title><desc>Created with Sketch.</desc><g id="Page-1" stroke="none" stroke-width="1" fill="none" fill-rule="evenodd"><g id="1_new-home" transform="translate(-910.000000, -1639.000000)"><g id="Group-22" transform="translate(141.000000, 1281.000000)"><g id="icon-5" transform="translate(769.000000, 358.000000)"><g id="Group" transform="translate(0.000000, 0.000000)" fill="#f2fbff"><ellipse id="Oval" cx="48.7880037" cy="23.1707527" rx="23.167033" ry="23.1707527"/><ellipse id="Oval-Copy-5" cx="83.172207" cy="72.4607885" rx="17.8579212" ry="17.8607885"/><ellipse id="Oval-Copy-6" cx="119.742857" cy="72.8" rx="7.25714286" ry="7.28"/><ellipse id="Oval-Copy-7" cx="9.67619048" cy="14.56" rx="9.67619048" ry="9.70666667"/><ellipse id="Oval-Copy-3" cx="86.4344322" cy="36.6870251" rx="30.8893773" ry="30.8943369"/><ellipse id="Oval-Copy-4" cx="47.8227106" cy="54.0650896" rx="30.8893773" ry="30.8943369"/></g><g id="Group-53" transform="translate(36.000000, 17.000000)" fill-rule="nonzero"><path d="M9.88856996 58V4.91527344v0H47.207428v0V55.0508359C47.207428 56.679707 45.8884465 58 44.2611934 58H9.88856996v0z" id="Path" fill="#e6e6e6"/><path d="M44.2611934 58v0C42.6339403 58 41.3149588 56.6798203 41.3149588 55.0508359v0V52.1016719H3.99610082V55.0508359C3.99610082 56.679707 5.3150823 58 6.94233539 58v0H44.2611934z" id="Path" fill="#d8445e"/><g id="Group" transform="translate(13.715370, 20.147879)" fill="#999"><path id="Rectangle" d="M4.0298251 4.21773605h1.96415638v1.96610938H4.0298251z"/><path id="Rectangle-Copy-26" d="M4.0298251-4.06797824h1.96415638v1.96610938H4.0298251z"/><path id="Rectangle" d="M7.95802469 4.21773605h21.605607v1.96610938H7.95802469z"/><path id="Rectangle-Copy-27" d="M7.95802469-4.06797824h21.605607v1.96610938H7.95802469z"/><path id="Rectangle" d="M.101512346 8.1499548h25.5339198v1.96610938H.101512346z"/><path id="Rectangle-Copy-25" d="M.101512346-815347789e-21h25.5339198v1.96610938H.101512346z"/></g><path id="Path" fill="#83af9b" d="M7.800607 42.1277109 3.66417695 41.4601445-191491267e-20 44.7327266 4.16506173 47.3368359 8.14531893 45.9723633z"/><path d="M54.8067078 40.0416367v0C54.9452263 41.6637109 53.7431481 43.0910547 52.1226852 43.2297109L8.10604938 46.9898555v0L7.60516461 41.1150898v0L51.6216872 37.3549453C53.2422634 37.2173086 54.6681893 38.4195625 54.8067078 40.0416367v0z" id="Path" fill="#fc9d9a"/><path d="M35.8938374 49.5614531 35.7278189 47.6032734 48.4495679 46.516 47.6982407 37.7010195 49.6545885 37.5339297 50.4903395 47.3290195C50.5365123 47.8697109 50.1357819 48.3454922 49.5956276 48.3917109L35.8938374 49.5614531z" id="Path" fill="#f07a87"/><g id="Group" transform="translate(4.888210, 0.000000)" fill="#fc9d9a"><path d="M2.05412551 23.5931992H.0899691358V3.93221875C.0899691358 1.76061719 1.84883745.0 4.01828189.0H12.8569856V1.96610937H4.01828189C2.933107 1.96610937 2.05412551 2.84596484 2.05412551 3.93221875V23.5931992z" id="Path"/><path id="Rectangle" d="M.0899691358 25.5593086h1.96415638v1.96610938H.0899691358z"/><path id="Rectangle" d="M45.2653395 9.83054687h1.96415638v22.6101445H45.2653395z"/></g><g id="Group-Copy" transform="translate(4.888210, 1.380952)" fill="#fc9d9a"><path id="Rectangle" d="M.0899691358 15.8926419h1.96415638v1.96610938H.0899691358z"/><path id="Rectangle" d="M45.2653395.163880208h1.96415638v22.6101445H45.2653395z"/></g></g></g></g></g></g></svg>