<svg width="128" height="91" viewBox="0 0 128 91" xmlns="http://www.w3.org/2000/svg" xmlns:xlink="http://www.w3.org/1999/xlink"><title>icon-4</title><desc>Created with Sketch.</desc><g id="Page-1" stroke="none" stroke-width="1" fill="none" fill-rule="evenodd"><g id="1_new-home" transform="translate(-730.000000, -1639.000000)"><g id="Group-22" transform="translate(141.000000, 1281.000000)"><g id="icon-4" transform="translate(589.000000, 358.000000)"><g id="Group-2-Copy-2" fill="#f2fbff"><g id="Group"><ellipse id="Oval" cx="48.7880037" cy="23.1707527" rx="23.167033" ry="23.1707527"/><ellipse id="Oval-Copy-5" cx="83.172207" cy="72.4607885" rx="17.8579212" ry="17.8607885"/><ellipse id="Oval-Copy-6" cx="119.742857" cy="72.8" rx="7.25714286" ry="7.28"/><ellipse id="Oval-Copy-7" cx="9.67619048" cy="14.56" rx="9.67619048" ry="9.70666667"/><ellipse id="Oval-Copy-3" cx="86.4344322" cy="36.6870251" rx="30.8893773" ry="30.8943369"/><ellipse id="Oval-Copy-4" cx="47.8227106" cy="54.0650896" rx="30.8893773" ry="30.8943369"/></g></g><g id="Group-85-Copy" transform="translate(35.000000, 12.000000)" fill-rule="nonzero"><g id="relationship-(1)" transform="translate(0.448167, 21.574520)"><path d="M14.6276667 25.1509063C6.562 25.1509063.0 31.8162667.0 40.0089785V40.0423854C0 40.5098568.373 40.8888449.833333333 40.8888449H28.4221111C28.8824444 40.8888449 29.2554444 40.5098568 29.2554444 40.0423854V40.0089785C29.2554444 31.8162667 22.6934444 25.1509063 14.6276667 25.1509063z" id="Path" fill="#7bc2f3"/><path d="M18.3091111 25.6260522C15.9151111 24.9954964 13.3398889 24.9954964 10.9461111 25.6260522 10.5406667 25.732819 10.2762222 26.1288492 10.3284444 26.5510631 10.6001111 28.7453118 12.4484444 30.3999707 14.6275556 30.3999707 16.8066667 30.3999707 18.655 28.7453118 18.9266667 26.5510631 18.9792222 26.1288492 18.7147778 25.732819 18.3091111 25.6260522z" id="Path" fill="#e09c77"/><path d="M27.144 5.27299098C25.9361111 3.24498698 23.9291111 1.94132655 21.4927778 1.60229133 19.7601111 1.36110681 18.343 1.83083538 17.5484444 2.1993274 16.3895556.797929117 15.0705556.045821672 12.3351111.045821672 9.19333333.045821672 4.74 1.70149637 2.38644444 5.33653187-.350222222 9.56329897.825222222 14.5700502 2.29322222 18.0258621 2.42922222 18.3458237 3.05888889 18.5372364 3.05888889 18.5372364L25.9141111 18.4470603C25.9141111 18.4470603 26.8245556 18.378102 26.9808889 17.9383946 29.3616667 11.2415459 28.3836667 7.35449122 27.144 5.27299098z" id="Path" fill="#6e563d"/><path d="M24.6541111 16.1642155C24.3385556 16.1642155 24.0255556 16.2142131 23.7238889 16.312741 23.3986667 16.4189434 23.1703333 16.7158814 23.1474444 17.0620269 23.0712222 18.2188548 22.7743333 19.328281 22.2647778 20.3596072 22.1114444 20.6698628 22.1602222 21.0436593 22.3875556 21.3026759 22.9646667 21.9600928 23.7908889 22.3370494 24.654 22.3370494 26.3294444 22.3370494 27.6925556 20.9524674 27.6925556 19.2506325 27.6925556 17.5487975 26.3295556 16.1642155 24.6541111 16.1642155z" id="Path" fill="#e09c77"/><path d="M6.99066667 20.3597201C6.481 19.3280553 6.184 18.2186291 6.108 17.0621397 6.08522222 16.7159943 5.85677778 16.4189434 5.53155556 16.312741 5.22988889 16.2141002 4.91688889 16.1642155 4.60133333 16.1642155 2.92588889 16.1642155 1.56277778 17.5487975 1.56277778 19.2506325 1.56277778 20.9524674 2.92588889 22.3370494 4.60133333 22.3370494 5.46444444 22.3370494 6.29055556 21.9600928 6.86766667 21.3027888 7.09522222 21.0437722 7.144 20.6699757 6.99066667 20.3597201z" id="Path" fill="#f7b081"/><path d="M55.3206667 9.20722169C54.2991111 6.5003572 52.5176667 4.20126045 50.1692222 2.55856479 47.8192222.914627661 45.0692222.045821672 42.2165556.045821672 39.3638889.045821672 36.6138889.914740522 34.2638889 2.55856479 31.9153333 4.20126045 30.134 6.5003572 29.1124444 9.20722169 27.579 13.2704528 27.5737778 22.2697841 29.7536667 26.9802745 30.5581111 28.7185637 31.6092222 29.8207667 32.8777778 30.2561855 33.3133333 30.4060652 50.9406667 30.3009914 51.2883333 30.3009914 51.3767778 30.3009914 51.4667778 30.2865452 51.5552222 30.2561855 52.8237778 29.8207667 53.8748889 28.7185637 54.6793333 26.9802745 56.8592222 22.2697841 56.854 13.2704528 55.3206667 9.20722169z" id="Path" fill="#a58260"/><path d="M42.2164444 25.1509063C34.1506667 25.1509063 27.5887778 31.8162667 27.5887778 40.0089785V40.0423854C27.5887778 40.5098568 27.9617778 40.8888449 28.4221111 40.8888449H56.0108889C56.4712222 40.8888449 56.8442222 40.5098568 56.8442222 40.0423854V40.0089785C56.8442222 31.8162667 50.2822222 25.1509063 42.2164444 25.1509063z" id="Path" fill="#fc9d9a"/><path d="M24.1437778 13.9282082C20.0186667 13.2078148 17.1637778 8.95542821 17.136 8.91344382 16.9647778 8.65296003 16.667 8.50736901 16.3602222 8.53897016 16.0534444 8.57057131 15.79 8.76898141 15.6735556 9.05903485 15.6685556 9.07111101 15.151 10.2841438 13.6316667 11.4781031 11.6023333 13.0729456 8.705 13.9159064 5.25288889 13.9159064 4.79255556 13.9159064 4.41955556 14.2948945 4.41955556 14.7623658V16.4748097C4.41955556 22.1923612 8.999 26.8438252 14.6277778 26.8438252 20.2565556 26.8438252 24.836 22.1923612 24.836 16.4748097V14.7623658C24.836 14.3501965 24.5436667 13.9979565 24.1437778 13.9282082z" id="Path" fill="#ffc89f"/><path d="M45.8978889 25.6260522C43.5038889 24.9954964 40.9286667 24.9954964 38.5348889 25.6260522 38.1294444 25.732819 37.865 26.1288492 37.9172222 26.5510631 38.1888889 28.7453118 40.0372222 30.3999707 42.2163333 30.3999707 44.3954444 30.3999707 46.2437778 28.7453118 46.5154444 26.5510631 46.5678889 26.1288492 46.3034444 25.732819 45.8978889 25.6260522z" id="Path" fill="#e09c77"/><path d="M51.7325556 13.9282082C47.6074444 13.2078148 44.7525556 8.95542821 44.7247778 8.91344382 44.5535556 8.65296003 44.2552222 8.50736901 43.949 8.53897016 43.6422222 8.57057131 43.3787778 8.76898141 43.2623333 9.05903485 43.2573333 9.07111101 42.7397778 10.2841438 41.2204444 11.4781031 39.1911111 13.0729456 36.2936667 13.9159064 32.8415556 13.9159064 32.3812222 13.9159064 32.0082222 14.2948945 32.0082222 14.7623658V16.4748097C32.0082222 22.1923612 36.5876667 26.8438252 42.2165556 26.8438252 47.8453333 26.8438252 52.4247778 22.1923612 52.4247778 16.4748097V14.7623658C52.4247778 14.3501965 52.1324444 13.9979565 51.7325556 13.9282082z" id="Path" fill="#ffc89f"/><g id="Group" transform="translate(36.888889, 16.703467)" fill="#464649"><path d="M1.45355556 2.84568384C.708555556 2.84568384.102555556 2.23002566.102555556 1.4732909c0-.756734753.606-1.372392933 1.351000004-1.372392933.7449999999999999.0 1.35111111.61565818 1.35111111 1.372392933.0.75684762-.6061111100000001 1.37239294-1.35111111 1.37239294z" id="Path"/><path d="M9.20155556 2.84568384C8.45655556 2.84568384 7.85044444 2.23002566 7.85044444 1.4732909 7.85044444.716556147 8.45655556.100897967 9.20155556.100897967 9.94655556.100897967 10.5525556.716556147 10.5525556 1.4732909 10.5526667 2.23013852 9.94666667 2.84568384 9.20155556 2.84568384z" id="Path"/></g><g id="Group" transform="translate(9.333333, 16.703467)" fill="#464649"><path d="M1.42033333 2.84568384C.675333333 2.84568384.0693333333 2.23002566.0693333333 1.4732909.0693333333.716556147.675333333.100897967 1.42033333.100897967 2.16533333.100897967 2.77144444.716556147 2.77144444 1.4732909 2.77144444 2.23013852 2.16533333 2.84568384 1.42033333 2.84568384z" id="Path"/><path d="M9.16844444 2.84568384C8.42344444 2.84568384 7.81733333 2.23002566 7.81733333 1.4732909 7.81733333.716556147 8.42344444.100897967 9.16844444.100897967 9.91344444.100897967 10.5194444.716556147 10.5194444 1.4732909 10.5194444 2.23013852 9.91344444 2.84568384 9.16844444 2.84568384z" id="Path"/></g></g><g id="checked" transform="translate(19.575000, 0.000000)" fill="#f9cdad"><path d="M9.0625.0C4.05765575.0.0 4.09208805.0 9.13978495.0 14.1874818 4.05765575 18.2795699 9.0625 18.2795699c5.0053965.0 9.0625-4.092088099999998 9.0625-9.13978495C18.125 4.09208805 14.0677266.0 9.0625.0zM7.40006674 13.8347142 3.40965767 9.81044628 4.73968075 8.46908077 7.40006674 11.1519832 13.3853193 5.11551707 14.7153423 6.45688257 7.40006674 13.8347142z" id="Shape"/></g><path id="Rectangle-Copy-23" fill="#fc9d9a" transform="translate(30.787056, 66.553514) rotate(-90.000000) translate(-30.787056, -66.553514)" d="M29.823954 39.9701803H31.7501571V93.136847H29.823954z"/><path id="Rectangle-Copy-24" fill="#fc9d9a" transform="translate(1.281510, 66.553514) rotate(-90.000000) translate(-1.281510, -66.553514)" d="M.318408696 65.2757256H2.24461184V67.8312812H.318408696z"/></g></g></g></g></g></svg>