<svg width="128" height="91" viewBox="0 0 128 91" xmlns="http://www.w3.org/2000/svg" xmlns:xlink="http://www.w3.org/1999/xlink"><title>icon-1</title><desc>Created with Sketch.</desc><g id="Page-1" stroke="none" stroke-width="1" fill="none" fill-rule="evenodd"><g id="1_new-home" transform="translate(-188.000000, -1639.000000)"><g id="Group-22" transform="translate(141.000000, 1281.000000)"><g id="icon-1" transform="translate(47.000000, 358.000000)"><g id="bg-icon" fill="#f2fbff"><g id="Group"><ellipse id="Oval" cx="48.7880037" cy="23.1707527" rx="23.167033" ry="23.1707527"/><ellipse id="Oval-Copy-5" cx="83.172207" cy="72.4607885" rx="17.8579212" ry="17.8607885"/><ellipse id="Oval-Copy-6" cx="119.742857" cy="72.8" rx="7.25714286" ry="7.28"/><ellipse id="Oval-Copy-7" cx="9.67619048" cy="14.56" rx="9.67619048" ry="9.70666667"/><ellipse id="Oval-Copy-3" cx="86.4344322" cy="36.6870251" rx="30.8893773" ry="30.8943369"/><ellipse id="Oval-Copy-4" cx="47.8227106" cy="54.0650896" rx="30.8893773" ry="30.8943369"/></g></g><g id="ic_online-Now" transform="translate(39.000000, 18.000000)" fill-rule="nonzero"><g id="relationship-(1)" transform="translate(0.386351, 14.946645)"><path d="M12.6100575 21.6988211C5.65689655 21.6988211.0 27.4493281.0 34.5175501V34.5463718C0 34.9496804.321551724 35.2766505.718390805 35.2766505H24.5018199C24.898659 35.2766505 25.2202107 34.9496804 25.2202107 34.5463718V34.5175501C25.2202107 27.4493281 19.5633142 21.6988211 12.6100575 21.6988211z" id="Path" fill="#80caec"/><path d="M15.7837165 22.108751C13.7199234 21.564742 11.4999042 21.564742 9.43630268 22.108751 9.08678161 22.2008634 8.85881226 22.5425365 8.90383142 22.9067996 9.13802682 24.7998768 10.7314176 26.2274257 12.6099617 26.2274257 14.4885057 26.2274257 16.0818966 24.7998768 16.316092 22.9067996 16.3613985 22.5425365 16.1334291 22.2008634 15.7837165 22.108751z" id="Path" fill="#e09c77"/><path d="M23.4 4.54924712C22.3587165 2.79959661 20.6285441 1.67486997 18.5282567 1.38236899 17.0345785 1.17428823 15.812931 1.57954425 15.1279693 1.89745893 14.1289272.688409434 12.9918582.0395324229 10.6337165.0395324229 7.92528736.0395324229 4.0862069 1.46795766 2.05727969 4.60406671-.301915709 8.2506893.711398467 12.5702394 1.97691571 15.5517241 2.09415709 15.8277695 2.63697318 15.9929099 2.63697318 15.9929099L22.339751 15.9151108C22.339751 15.9151108 23.1246169 15.8556175 23.259387 15.476262 25.3117816 9.69858864 24.4686782 6.34505125 23.4 4.54924712z" id="Path" fill="#6e563d"/><path d="M21.2535441 13.9455977C20.9815134 13.9455977 20.7116858 13.9887329 20.4516284 14.0737373 20.1712644 14.1653629 19.9744253 14.4215447 19.9546935 14.7201801 19.8889847 15.7182277 19.633046 16.6753797 19.1937739 17.5651513 19.06159 17.8328228 19.1036398 18.1553139 19.2996169 18.3787792 19.7971264 18.9459624 20.509387 19.2711798 21.2534483 19.2711798 22.6977969 19.2711798 23.8728927 18.0766386 23.8728927 16.6083888 23.8728927 15.140139 22.6978927 13.9455977 21.2535441 13.9455977z" id="Path" fill="#e09c77"/><path d="M6.02643678 17.5652487C5.58706897 16.675185 5.33103448 15.7180329 5.26551724 14.7202774 5.24588123 14.4216421 5.04894636 14.1653629 4.76858238 14.0737373 4.5085249 13.9886355 4.23869732 13.9455977 3.96666667 13.9455977 2.52231801 13.9455977 1.34722222 15.140139 1.34722222 16.6083888 1.34722222 18.0766386 2.52231801 19.2711798 3.96666667 19.2711798 4.71072797 19.2711798 5.42289272 18.9459624 5.9204023 18.3788766 6.11657088 18.1554113 6.15862069 17.8329202 6.02643678 17.5652487z" id="Path" fill="#f7b081"/><path d="M47.6902299 7.94348538C46.8095785 5.60815131 45.2738506 3.62461686 43.2493295 2.20738923 41.2234674.789090531 38.8527778.0395324229 36.3935824.0395324229 33.934387.0395324229 31.5636973.789187901 29.5378352 2.20738923 27.5132184 3.62461686 25.9775862 5.60815131 25.0969349 7.94348538 23.775 11.4490181 23.7704981 19.213147 25.6497126 23.2770996 26.3431992 24.7768 27.2493295 25.7277203 28.3429119 26.1033757 28.7183908 26.2326837 43.9143678 26.1420318 44.2140805 26.1420318 44.2903257 26.1420318 44.3679119 26.1295684 44.4441571 26.1033757 45.5377395 25.7277203 46.4438697 24.7768 47.1373563 23.2770996 49.0165709 19.213147 49.012069 11.4490181 47.6902299 7.94348538z" id="Path" fill="#a58260"/><path d="M36.3934866 21.6988211C29.4402299 21.6988211 23.7834291 27.4493281 23.7834291 34.5175501V34.5463718C23.7834291 34.9496804 24.1049808 35.2766505 24.5018199 35.2766505H48.285249C48.6820881 35.2766505 49.0036398 34.9496804 49.0036398 34.5463718V34.5175501C49.0036398 27.4493281 43.3467433 21.6988211 36.3934866 21.6988211z" id="Path" fill="#fc9d9a"/><path d="M20.8136015 12.0164934C17.2574713 11.3949775 14.7963602 7.72625179 14.7724138 7.69002997 14.6248084 7.46529885 14.3681034 7.33969091 14.1036398 7.36695465 13.8391762 7.39421839 13.612069 7.56539573 13.5116858 7.81563791 13.5073755 7.82605655 13.0612069 8.87259469 11.7514368 9.9026772 10.0020115 11.2786197 7.50431034 12.00588 4.52835249 12.00588 4.13151341 12.00588 3.80996169 12.3328501 3.80996169 12.7361588V14.2135613C3.80996169 19.1463509 7.75775862 23.1593786 12.6101533 23.1593786c4.8523946.0 8.8001915-4.0130276999999985 8.8001915-8.9458173V12.7361588C21.4103448 12.3805617 21.1583333 12.0766684 20.8136015 12.0164934z" id="Path" fill="#ffc89f"/><path d="M39.5671456 22.108751C37.5033525 21.564742 35.2833333 21.564742 33.2197318 22.108751 32.8702107 22.2008634 32.6422414 22.5425365 32.6872605 22.9067996 32.9214559 24.7998768 34.5148467 26.2274257 36.3933908 26.2274257 38.2719349 26.2274257 39.8653257 24.7998768 40.0995211 22.9067996 40.1447318 22.5425365 39.9167625 22.2008634 39.5671456 22.108751z" id="Path" fill="#e09c77"/><path d="M44.5970307 12.0164934C41.0409004 11.3949775 38.5797893 7.72625179 38.5558429 7.69002997 38.4082375 7.46529885 38.1510536 7.33969091 37.887069 7.36695465 37.6226054 7.39421839 37.3954981 7.56539573 37.2951149 7.81563791 37.2908046 7.82605655 36.844636 8.87259469 35.5348659 9.9026772 33.7854406 11.2786197 31.2876437 12.00588 28.3116858 12.00588 27.9148467 12.00588 27.593295 12.3328501 27.593295 12.7361588V14.2135613C27.593295 19.1463509 31.541092 23.1593786 36.3935824 23.1593786 41.245977 23.1593786 45.1937739 19.1463509 45.1937739 14.2135613V12.7361588C45.1937739 12.3805617 44.9417625 12.0766684 44.5970307 12.0164934z" id="Path" fill="#ffc89f"/><g id="Group" transform="translate(31.800766, 14.410834)" fill="#464649"><path d="M1.25306513 2.45509978C.610823755 2.45509978.0884099617 1.92394371.0884099617 1.2710745.0884099617.618205304.610823755.0870492269 1.25306513.0870492269 1.89530651.0870492269 2.41781609.618205304 2.41781609 1.2710745 2.41781609 1.92404108 1.89530651 2.45509978 1.25306513 2.45509978z" id="Path"/><path d="M7.93237548 2.45509978C7.2901341 2.45509978 6.76762452 1.92394371 6.76762452 1.2710745 6.76762452.618205304 7.2901341.0870492269 7.93237548.0870492269 8.57461686.0870492269 9.09703065.618205304 9.09703065 1.2710745 9.09712644 1.92404108 8.57471264 2.45509978 7.93237548 2.45509978z" id="Path"/></g><g id="Group" transform="translate(8.045977, 14.410834)" fill="#464649"><path d="M1.22442529 2.45509978C.582183908 2.45509978.0597701149 1.92394371.0597701149 1.2710745.0597701149.618205304.582183908.0870492269 1.22442529.0870492269 1.86666667.0870492269 2.38917625.618205304 2.38917625 1.2710745 2.38917625 1.92404108 1.86666667 2.45509978 1.22442529 2.45509978z" id="Path"/><path d="M7.90383142 2.45509978C7.26159004 2.45509978 6.73908046 1.92394371 6.73908046 1.2710745 6.73908046.618205304 7.26159004.0870492269 7.90383142.0870492269 8.5460728.0870492269 9.06848659.618205304 9.06848659 1.2710745 9.06848659 1.92404108 8.5460728 2.45509978 7.90383142 2.45509978z" id="Path"/></g></g><path d="M25 3.08003609 23.2306881 1.27518223C22.4305084.458928446 21.3435519.0 20.2113055.0V0C17.8532255.0 15.942029 1.94958868 15.942029 4.35503785v0C15.942029 5.51002883 16.39192 6.61882017 17.1920998 7.43507394L25 15.4 32.8079002 7.43525441C33.60808 6.61900063 34.057971 5.5102093 34.057971 4.35521832v0C34.057971 1.94976914 32.1467745.00018046734 29.7886945.00018046734v0C28.6564481.00018046734 27.5694916.459108913 26.7693119 1.27536269L25 3.08003609z" id="Path" fill="#f07a87"/><path id="Rectangle-Copy-23" fill="#fc9d9a" transform="translate(26.540565, 53.752051) rotate(-90.000000) translate(-26.540565, -53.752051)" d="M25.709654 30.8353843H27.3714763V76.6687177H25.709654z"/><path id="Rectangle-Copy-24" fill="#fc9d9a" transform="translate(1.104747, 53.752051) rotate(-90.000000) translate(-1.104747, -53.752051)" d="M.273835601 52.650513H1.93565792V54.8535782H.273835601z"/></g></g></g></g></g></svg>