<svg width="128" height="91" viewBox="0 0 128 91" xmlns="http://www.w3.org/2000/svg" xmlns:xlink="http://www.w3.org/1999/xlink"><title>icon-2</title><desc>Created with Sketch.</desc><g id="Page-1" stroke="none" stroke-width="1" fill="none" fill-rule="evenodd"><g id="1_new-home" transform="translate(-369.000000, -1639.000000)"><g id="Group-22" transform="translate(141.000000, 1281.000000)"><g id="icon-2" transform="translate(228.000000, 358.000000)"><g id="bg-icon" fill="#f2fbff"><g id="Group"><ellipse id="Oval" cx="48.7880037" cy="23.1707527" rx="23.167033" ry="23.1707527"/><ellipse id="Oval-Copy-5" cx="83.172207" cy="72.4607885" rx="17.8579212" ry="17.8607885"/><ellipse id="Oval-Copy-6" cx="119.742857" cy="72.8" rx="7.25714286" ry="7.28"/><ellipse id="Oval-Copy-7" cx="9.67619048" cy="14.56" rx="9.67619048" ry="9.70666667"/><ellipse id="Oval-Copy-3" cx="86.4344322" cy="36.6870251" rx="30.8893773" ry="30.8943369"/><ellipse id="Oval-Copy-4" cx="47.8227106" cy="54.0650896" rx="30.8893773" ry="30.8943369"/></g></g><g id="ic_ring" transform="translate(41.000000, 16.000000)" fill-rule="nonzero"><path d="M31.7476052 24.2223583V18.9340652H14.8356217v5.2884052C6.07949316 28.895306 2.76683891 39.7871896 7.43669197 48.5489105 12.106545 57.3106313 22.9914767 60.6254013 31.7476052 55.9525657 40.5037338 51.2797301 43.816388 40.3878466 39.146535 31.6261257 37.4690857 28.4784229 34.8943074 25.900879 31.7476052 24.2223583zM23.2916695 53.8372036C15.7024719 53.8372036 9.55070391 47.6815066 9.55070391 40.087462 9.55070391 32.4934174 15.7024719 26.3377204 23.2916695 26.3377204 30.880867 26.3377204 37.0326351 32.4934174 37.0326351 40.087462 37.0326351 47.6815066 30.880867 53.8372036 23.2916695 53.8372036z" id="Shape" fill="#f5a2ac"/><path id="Rectangle" fill="#f07a87" d="M14.8356217 18.9340652h16.9119835v4.23072422H14.8356217z"/><path id="Path" fill="#29abe2" d="M31.7476052 18.9340652 40.2035409 10.4726167 30.6905992.953599332H15.8926277L6.379686 10.4726167 14.8356217 18.9340652z"/><path id="Path" fill="#80caec" d="M25.4055694 18.9340652l5.2850298-8.4614485H40.2035409L31.7476052 18.9340652z"/><path d="M2.53432673 36.0566578.460542197 35.6568178C.604307559 34.9164523.787179789 34.1655469 1.00277181 33.4357212L3.02904542 34.0386207C2.83026151 34.7028529 2.66531793 35.3808766 2.53432673 36.0566578z" id="Path" fill="#fc9d9a"/><path d="M8.8952997 58.3619212C3.28901084 53.9598691.0207300016 47.2183156.0375847894 40.087462.0375847894 39.3470965.0724989785 38.606731.143317146 37.8716353L2.24780449 38.0725645C2.18337341 38.7356754 2.15166211 39.4136991 2.15166211 40.087462 2.13586249 46.5710144 5.10697595 52.7002497 10.2059961 56.7013407L8.8952997 58.3619212z" id="Path" fill="#fc9d9a"/><path id="Path" fill="#80caec" d="M21.1776576 18.9340652l-5.2850299-8.4614485H6.379686L14.8356217 18.9340652z"/><g id="Group" transform="translate(36.193462, 0.628915)" fill="#fc9d9a"><path id="Rectangle" transform="translate(1.614041, 17.525801) rotate(135.000000) translate(-1.614041, -17.525801)" d="M.520055897 16.4688168 2.70870123 16.4681181 2.70802616 18.5827848.519380819 18.5834835z"/><path d="M4.75736728 15.8798726 3.26279019 14.384341 6.30584237 11.3393453C7.13134465 10.5133158 7.13134465 9.17431152 6.30584237 8.34828202L.0917722772 2.13024315 1.58634936.634711515 7.80041946 6.85275038C9.45142401 8.50480939 9.45142401 11.1828179 7.80041946 12.834989L4.75736728 15.8798726z" id="Path"/></g><path id="Path" fill="#80caec" d="M15.8926277.953599332 23.2916695 10.4726167 30.6905992.953599332z"/><path id="Path" fill="#259acb" d="M15.8926277 10.4726167l5.2850299 8.4614485H25.4055694l5.2850298-8.4614485z"/></g></g></g></g></g></svg>